<svg id="Layer_1" data-name="Layer 1" xmlns="http://www.w3.org/2000/svg" viewBox="0 0 64 64"><defs><style>.cls-1{fill:none;stroke:#263238;stroke-linecap:round;stroke-linejoin:round;stroke-width:2.4px;}</style></defs><line class="cls-1" x1="32.7" y1="33.8" x2="26.9" y2="33.8"/><path class="cls-1" d="M35,40.9s-12.9.6-14-4.1,1.5-4.6,2.9-5.4.4-4,4.7-4"/><path class="cls-1" d="M17.4,49.7s2.2-9-1.1-13-7.6.9-8.2,4.7"/><path class="cls-1" d="M9,38.8a3.9,3.9,0,0,0-3.9-.7C3,39,2.6,45.4,7.3,47.3S11.1,42,11.1,42"/><path class="cls-1" d="M9.8,46.9l.2,4c.3,5.1,5.1,12,16.6,7.1s13.2-9.3,17.8-17.4c3.2-5.7,12.1-3.9,15.4-13.6,5-14.6-8.7-19.5-12-20.1s-10.1-.1-14.3,7.6c-1.3,2.4-.9,4.4-1.9,4.9s-2.8.8-2.2,2.9a6.6,6.6,0,0,1-.6,4.1s-1,5.2,5,7.6c1.9.7,3.5-.9,6.9,3.2"/><path class="cls-1" d="M35.6,20.9s.7,2.4,3.7,1"/><path class="cls-1" d="M43.8,29.2s2.9,4.4,5.7.2-2-5.3-2.8-5.1"/><path class="cls-1" d="M18,41.2s.5-1.6,3.7-2.7"/></svg>