<svg id="Layer_1" data-name="Layer 1" xmlns="http://www.w3.org/2000/svg" viewBox="0 0 64 64"><defs><style>.cls-1{fill:none;stroke:#263238;stroke-linecap:round;stroke-linejoin:round;stroke-width:2.4px;}</style></defs><g id="gall_liver_organ" data-name="gall, liver, organ"><path class="cls-1" d="M36.4,32.6c-2.2.3-3.6-1.8-3.6-11.1"/><path class="cls-1" d="M32.8,14.2a3.7,3.7,0,0,1,3.6-3.7H47.7"/><path class="cls-1" d="M21.7,44.6,20,45a18.3,18.3,0,0,0-7.1,4.5L8.6,53.8a3,3,0,0,1-5.1-2.2V27.5a16.9,16.9,0,0,1,16.9-17H53.6A3,3,0,0,1,56,15.2l-5.9,8.6a19.8,19.8,0,0,1-8.6,6.8l-4.4,1.7a18.6,18.6,0,0,0-7.3,5.1l-.6.8C27,40.6,24.8,43.5,21.7,44.6Z"/><line class="cls-1" x1="32.8" y1="53.8" x2="32.8" y2="60"/><line class="cls-1" x1="32.8" y1="40.9" x2="32.8" y2="34.7"/><line class="cls-1" x1="32.8" y1="60" x2="32.8" y2="53.8"/></g><path class="cls-1" d="M59.1,34.7a2.6,2.6,0,0,0,1.2-1.8,2,2,0,0,0-.3-1.5,1.2,1.2,0,0,0,.3-.9,2.3,2.3,0,0,0-2-2.6,2.4,2.4,0,0,0-2.5,1.6c-8.2.3-21.9,11.1-21.9,11.1a6.8,6.8,0,0,0-5.7,6.7,6.8,6.8,0,0,0,13.3,2.3S60.7,38.3,59.1,34.7Z"/><path class="cls-1" d="M22.9,44v8.1C22.9,60,30,60,30,60"/><path class="cls-1" d="M33.3,47.7a2.7,2.7,0,0,1,.4-3.7"/><path class="cls-1" d="M49.8,38.5s.6-1.1-2.1-1.6"/><path class="cls-1" d="M41.2,43.4a1.8,1.8,0,0,1,2.4-.2"/><path class="cls-1" d="M40.2,46.2a1.1,1.1,0,0,0,.7,1.5"/><line class="cls-1" x1="36.4" y1="54.1" x2="36.4" y2="60"/></svg>