<svg viewBox="0 0 67 63" fill="none" stroke="#263238" xmlns="http://www.w3.org/2000/svg">
<path d="M34.0527 32.1255L27.3858 32.2181" stroke-width="3.5" stroke-linecap="round" stroke-linejoin="round"/>
<path d="M36.6625 40.4287C36.6625 40.4287 22.0408 41.0309 20.7074 35.6574C19.374 30.2839 22.4511 30.3534 24.1264 29.4037C25.8017 28.4541 24.5822 24.7714 29.5055 24.7019" stroke-width="3.5" stroke-linecap="round" stroke-linejoin="round"/>
<path d="M16.5819 50.5853C16.5819 50.5853 19.0663 40.1625 15.3511 35.5301C11.6358 30.8978 6.72393 36.5261 6.00595 40.9731" stroke-width="3.5" stroke-linecap="round" stroke-linejoin="round"/>
<path d="M7.03163 37.9854C6.4087 37.4555 5.65946 37.1016 4.85924 36.9593C4.05902 36.817 3.23603 36.8913 2.47304 37.1747C0.193736 38.1938 -0.27352 45.5593 5.11702 47.806C9.59585 49.6705 9.4135 41.6681 9.4135 41.6681" stroke-width="3.5" stroke-linecap="round" stroke-linejoin="round"/>
<path d="M7.95476 47.3659L8.19408 51.9982C8.49039 57.8697 13.8923 65.8953 27.0781 60.2091C40.2638 54.5229 42.1101 49.4273 47.3183 40.0815C51.0107 33.4688 61.1308 35.5534 64.9144 24.2968C70.6127 7.38868 54.9653 1.74879 51.2387 1.135C47.512 0.521215 39.7168 1.00761 34.9417 9.92489C33.4487 12.7159 33.8818 15.0205 32.7991 15.53C30.9187 16.4218 29.6081 16.5144 30.2349 18.8653C30.5407 20.4874 30.2913 22.1669 29.5283 23.6251C29.5283 23.6251 28.4912 29.7166 35.2266 32.4497C37.3691 33.3067 39.2495 31.4885 43.1129 36.1787" stroke-width="3.5" stroke-linecap="round" stroke-linejoin="round"/>
<path d="M37.3349 17.2786C37.3349 17.2786 38.1441 20.0001 41.5174 18.3324" stroke-width="3.5" stroke-linecap="round" stroke-linejoin="round"/>
<path d="M46.7256 26.8791C46.7256 26.8791 50.042 31.9863 53.233 27.0992C55.7972 23.1733 50.9537 20.8918 49.985 21.1698" stroke-width="3.5" stroke-linecap="round" stroke-linejoin="round"/>
<path d="M17.2885 40.7185C17.2885 40.7185 17.9609 38.935 21.528 37.5569" stroke-width="3.5" stroke-linecap="round" stroke-linejoin="round"/>
</svg>