<svg id="Layer_1" data-name="Layer 1" xmlns="http://www.w3.org/2000/svg" viewBox="0 0 64 64"><defs><style>.cls-1,.cls-2{fill:none;stroke:#263238;stroke-linecap:round;stroke-linejoin:round;}.cls-1{stroke-width:2.4px;}.cls-2{stroke-width:4px;}</style></defs><g id="lungs_Organ" data-name="lungs, Organ"><path class="cls-1" d="M17.7,60.1a28.1,28.1,0,0,1-.1-2.9v-30"/><path class="cls-1" d="M17.6,16V12.3A8,8,0,0,1,30.7,6.1l5.7,4.7a54.6,54.6,0,0,1,19.7,42v7.3"/><path class="cls-1" d="M9.7,4.2V16.1c0,6.5,3,7.2,5.5,7.7s7.4,3.7,7.4,8.2V43.2"/></g><line class="cls-2" x1="43.5" y1="30" x2="43.5" y2="30"/><path class="cls-1" d="M13.8,3.9V15.4c0,4.3,2.4,4,5.7,5.5a11.5,11.5,0,0,1,5,4.7"/><line class="cls-2" x1="46.8" y1="41.1" x2="46.8" y2="41.1"/><line class="cls-2" x1="43" y1="53.2" x2="43" y2="53.2"/><path class="cls-1" d="M22.6,35.1v9.2a9,9,0,0,0,.9,4h0a8.9,8.9,0,0,0,7.9,4.9h3.3"/><path class="cls-1" d="M27.7,46.8a5.5,5.5,0,0,0,4.9,3h2"/><path class="cls-1" d="M27.1,44.3a5.4,5.4,0,0,0,.6,2.5h0"/><path class="cls-1" d="M26.4,34.4v4.7a1.9,1.9,0,0,0,1.9,2h1.2a5.1,5.1,0,0,0,3.8-1.8l2.7-3"/><path class="cls-1" d="M39.2,44.1H27.1"/><path class="cls-1" d="M31.6,24.6v3a3,3,0,0,1-3.1,3h0c-1.6,0-2.2-1.5-3-3l-1-2"/><polyline class="cls-1" points="37.7 38.4 34.9 41.3 39.2 41.3"/></svg>