<svg id="Layer_1" data-name="Layer 1" xmlns="http://www.w3.org/2000/svg" viewBox="0 0 64 64"><defs><style>.cls-1{fill:none;stroke:#263238;stroke-linecap:round;stroke-linejoin:round;stroke-width:2.4px;}</style></defs><g id="Face_otolaryngology_throat" data-name="Face, otolaryngology, throat"><path class="cls-1" d="M44,19.7H38.9v3.2a2.4,2.4,0,0,0,1.5,2.2l17.4,6.6"/><path class="cls-1" d="M44,19.7a1.1,1.1,0,0,0,1.1-1.2V17.4"/><path class="cls-1" d="M22.2,3.4c0,4.7,2.1,8,3.6,10.3s.6,9.2.6,9.2a2.4,2.4,0,0,1-1.5,2.2L8.1,31.7"/><path class="cls-1" d="M45.1,17.4V11.9h2.8c.6,0,.9-.4.6-1L45.2,3.4"/><path class="cls-1" d="M39,15.3a3.8,3.8,0,0,0-3.4,2c-.8,1.4-1.3,3.4-1.3,8.9"/></g><g id="lungs_Organ" data-name="lungs, Organ"><path class="cls-1" d="M37.8,30.6a2.6,2.6,0,0,1,3,.3l2.1,1.8a20.5,20.5,0,0,1,7.4,15.8v9.9a2.4,2.4,0,0,1-3.1,2.3l-4.5-1.4a9,9,0,0,1-6.5-9V37.5"/><path class="cls-1" d="M39.2,41.9v3.7a4.5,4.5,0,0,0,.3,1.6h0a3.5,3.5,0,0,0,3.2,1.9H44"/><path class="cls-1" d="M34.3,26.2v9.7a1.3,1.3,0,0,0,1.2,1.2h0a3.7,3.7,0,0,1,3.7,3.6v1.8A1.8,1.8,0,0,0,41,44.3h4.8"/><path class="cls-1" d="M29,37.3V50.1a9.7,9.7,0,0,1-6.8,9.2l-4.6,1.4a2.4,2.4,0,0,1-3.1-2.3V48.5a20.5,20.5,0,0,1,7.4-15.8L24,30.9a3.2,3.2,0,0,1,3.5-.2"/><path class="cls-1" d="M26,41.9v3.7a3.2,3.2,0,0,1-.4,1.6h0a3.4,3.4,0,0,1-3.1,1.9H21.2"/><path class="cls-1" d="M38.9,8.4l-2.1.5c-2.4.4-6,1.8-6,7.5V35.9a1.2,1.2,0,0,1-1.2,1.2h0A3.6,3.6,0,0,0,26,40.7v1.8a1.8,1.8,0,0,1-1.8,1.8H19.4"/></g></svg>