<svg id="Layer_1" data-name="Layer 1" xmlns="http://www.w3.org/2000/svg" viewBox="0 0 64 64"><defs><style>.cls-1{fill:none;stroke:#263238;stroke-linecap:round;stroke-linejoin:round;stroke-width:2.4px;}</style></defs><g id="Anatomy_cardiology_heart_organ" data-name="Anatomy, cardiology, heart, organ"><line class="cls-1" x1="29.4" y1="7.4" x2="27.1" y2="4.5"/><path class="cls-1" d="M33.3,7.3l-.8-.2V4.3"/><path class="cls-1" d="M37.4,4.5,35.8,8.3A6.1,6.1,0,0,1,37.7,10"/><path class="cls-1" d="M24.5,10a15.7,15.7,0,0,1,1.9-1.5"/><path class="cls-1" d="M40.7,20.6l.5.3h0c6.5,3.7,7.5,6.2,5.7,7.5"/><path class="cls-1" d="M15.3,9.6l.9,6.7a42.4,42.4,0,0,1-.1,11.8c-3.4,5.1-2.6,11.5-.9,14.3s3.6.2,6-3"/><path class="cls-1" d="M28.1,30.6c2.3-3.3,1.7-5.7-.7-6.6a7.9,7.9,0,0,0-2.9-.6L21.6,8.7c-.4-.6-1.6-.9-2.8-.9"/><path class="cls-1" d="M16.4,43.4a.6.6,0,0,0,.1.4c7.8,16.8,21.9,15,31.7,15,4.3,0,8.3-4.8,7.1-13.6C54.5,39,51.4,28,48.2,27.9c-2.9,1.4-6.7,1.1-10.5.1a1.9,1.9,0,0,1-1.4-1.6v-.7A9.4,9.4,0,0,1,44.5,15H45c1.3-.8.8-3.3-.4-3.2l-4.8.7a13.4,13.4,0,0,0-6.2,2.4c-.7.5-1.7-1.4-3.2-.2s-1.7,3.9-1.2,5.5a15.1,15.1,0,0,0-1.3,4.1"/><path class="cls-1" d="M22,27.1s2.6-1.9,2.5-3.7"/></g></svg>