<svg id="Layer_1" data-name="Layer 1" xmlns="http://www.w3.org/2000/svg" viewBox="0 0 64 64"><defs><style>.cls-1{fill:none;stroke:#263238;stroke-linecap:round;stroke-linejoin:round;stroke-width:2.4px;}</style></defs><g id="lungs_Organ" data-name="lungs, Organ"><path class="cls-1" d="M36.8,15.8a4.8,4.8,0,0,1,7.9-3.7L48.2,15A33.1,33.1,0,0,1,60.1,40.4V56.5a3.9,3.9,0,0,1-5,3.7l-7.3-2.3A15.5,15.5,0,0,1,36.8,43V22.3"/><path class="cls-1" d="M41.6,29.8v5.9a7.6,7.6,0,0,0,.6,2.6h0a5.8,5.8,0,0,0,5.1,3.1h2.1"/><path class="cls-1" d="M33.9,3.4V20a1.9,1.9,0,0,0,1.9,2h0a5.8,5.8,0,0,1,5.8,5.8v2.9a3,3,0,0,0,3,2.9h7.7"/><path class="cls-1" d="M27,15.8a4.9,4.9,0,0,0-8-3.7L15.6,15C8,21.2,3.7,29.6,3.7,39.4V56.5a3.9,3.9,0,0,0,5,3.7L16,57.9A15.5,15.5,0,0,0,27,43V22.3"/><path class="cls-1" d="M22.1,29.8v5.9a5.8,5.8,0,0,1-.6,2.6h0a5.6,5.6,0,0,1-5,3.1H14.3"/><path class="cls-1" d="M29.9,3.4V20A2,2,0,0,1,28,22h0a5.8,5.8,0,0,0-5.9,5.8v2.9a2.9,2.9,0,0,1-2.9,2.9H11.4"/></g></svg>