
<svg version="1.0"
viewBox="0 0 800.000000 467.000000">
<g transform="translate(0.000000,467.000000) scale(0.100000,-0.100000)"
fill="#000000" stroke="none">
<path d="M1913 3656 c-112 -37 -200 -122 -229 -224 -22 -75 -15 -180 17 -247
18 -40 219 -248 1038 -1074 559 -563 1034 -1036 1056 -1051 111 -76 289 -79
404 -6 20 13 495 486 1057 1052 823 830 1025 1039 1043 1079 32 67 39 172 17
248 -24 83 -86 154 -171 197 -61 32 -76 35 -149 35 -149 -1 -83 56 -1073 -936
-485 -486 -891 -895 -902 -909 l-21 -25 -26 30 c-15 17 -421 426 -903 909
-737 739 -884 883 -928 903 -65 30 -170 39 -230 19z"/>
</g>
</svg>
