<svg viewBox="0 0 67 63" fill="none" xmlns="http://www.w3.org/2000/svg">
<path d="M39.1218 15.796V13.3188C39.1219 12.3055 39.4261 11.3131 39.9989 10.4578C40.5717 9.60256 41.3894 8.91982 42.3563 8.48949C43.3232 8.05917 44.3992 7.89906 45.4585 8.02793C46.5178 8.1568 47.5164 8.56929 48.3376 9.21715L52.3445 12.3741C56.654 15.7827 60.1195 20.05 62.495 24.8729C64.8705 29.6957 66.0977 34.9557 66.0893 40.2793V57.9189C66.0882 58.5856 65.9224 59.2428 65.605 59.8376C65.2876 60.4325 64.8277 60.9484 64.262 61.344C63.6964 61.7395 63.0409 62.0036 62.3481 62.1151C61.6554 62.2266 60.9448 62.1824 60.2733 61.986L51.7738 59.5204C48.095 58.4497 44.8756 56.2867 42.5893 53.3498C40.3029 50.4129 39.0705 46.8571 39.0732 43.2058V20.4737" stroke="#263238" stroke-width="1.5" stroke-linecap="round" stroke-linejoin="round"/>
<path d="M43.6143 28.6772V35.1639C43.6183 36.1275 43.855 37.0774 44.3064 37.9406V37.9406C44.8507 38.9756 45.6872 39.8468 46.7227 40.4572C47.7583 41.0675 48.9521 41.3929 50.1711 41.3971H52.5995" stroke="#263238" stroke-width="1.5" stroke-linecap="round" stroke-linejoin="round"/>
<path d="M46.1277 40.314L47.9976 45.0724" stroke="#263238" stroke-width="1.5" stroke-linecap="round" stroke-linejoin="round"/>
<path d="M50.5232 32.6406L53.6558 29.2878" stroke="#263238" stroke-width="1.5" stroke-linecap="round" stroke-linejoin="round"/>
<path d="M34.6292 0.864014V17.9275C34.6292 18.4928 34.8658 19.0349 35.2871 19.4347C35.7084 19.8344 36.2797 20.059 36.8755 20.059V20.059C37.7609 20.0575 38.6379 20.2218 39.4562 20.5426C40.2745 20.8634 41.018 21.3344 41.6441 21.9285C42.2702 22.5226 42.7665 23.2281 43.1046 24.0046C43.4427 24.7811 43.6159 25.6133 43.6143 26.4535V29.6564C43.6175 30.5039 43.9746 31.3157 44.6073 31.9139C45.2399 32.512 46.0967 32.8479 46.9898 32.8479H55.9749" stroke="#263238" stroke-width="1.5" stroke-linecap="round" stroke-linejoin="round"/>
<path d="M43.6143 26.4535C43.6143 27.0188 43.851 27.561 44.2723 27.9607C44.6935 28.3605 45.2649 28.585 45.8606 28.585V28.585C46.1566 28.5865 46.45 28.5325 46.724 28.4261C46.9979 28.3196 47.247 28.1629 47.4568 27.9648C47.6667 27.7667 47.8333 27.5312 47.9469 27.2719C48.0605 27.0125 48.119 26.7344 48.119 26.4535V24.322" stroke="#263238" stroke-width="1.5" stroke-linecap="round" stroke-linejoin="round"/>
<path d="M27.8782 15.7961V13.3189C27.8812 12.3057 27.5793 11.3126 27.008 10.4565C26.4367 9.60046 25.6198 8.91687 24.6533 8.48612C23.6867 8.05537 22.6107 7.89535 21.5516 8.02486C20.4925 8.15437 19.4944 8.56803 18.6745 9.21723L14.6676 12.3741C10.3521 15.78 6.88013 20.0459 4.4983 24.8688C2.11647 29.6917 0.883285 34.9532 0.886358 40.2794V57.919C0.889439 58.5862 1.05708 59.2434 1.37587 59.8381C1.69465 60.4328 2.15573 60.9485 2.7222 61.3438C3.28866 61.7391 3.94477 62.0031 4.63803 62.1146C5.33129 62.2261 6.04244 62.1821 6.71456 61.9861L15.214 59.5205C18.8938 58.4513 22.1144 56.2888 24.401 53.3515C26.6876 50.4143 27.9193 46.8577 27.9146 43.2059V20.4738" stroke="#263238" stroke-width="1.5" stroke-linecap="round" stroke-linejoin="round"/>
<path d="M23.3856 28.6772V35.1639C23.4082 36.1361 23.1877 37.0995 22.7421 37.9752V37.9752C22.2012 39.0127 21.3654 39.8861 20.3292 40.4969C19.2929 41.1076 18.0973 41.4314 16.8775 41.4316H14.449" stroke="#263238" stroke-width="1.5" stroke-linecap="round" stroke-linejoin="round"/>
<path d="M20.8843 40.314L19.0023 45.0724" stroke="#263238" stroke-width="1.5" stroke-linecap="round" stroke-linejoin="round"/>
<path d="M16.4768 32.6406L13.3441 29.2878" stroke="#263238" stroke-width="1.5" stroke-linecap="round" stroke-linejoin="round"/>
<path d="M32.3829 0.864014V17.9275C32.3829 18.4928 32.1462 19.0349 31.725 19.4347C31.3037 19.8344 30.7323 20.059 30.1366 20.059V20.059C29.2506 20.0575 28.373 20.2217 27.554 20.5424C26.735 20.8631 25.9907 21.3339 25.3636 21.9278C24.7366 22.5217 24.2391 23.2272 23.8997 24.0037C23.5603 24.7803 23.3856 25.6127 23.3856 26.4535V29.6564C23.3856 30.5029 23.0312 31.3147 22.4005 31.9132C21.7697 32.5117 20.9142 32.8479 20.0222 32.8479H11.025" stroke="#263238" stroke-width="1.5" stroke-linecap="round" stroke-linejoin="round"/>
<path d="M23.3856 26.4535C23.3856 27.0188 23.149 27.561 22.7277 27.9607C22.3064 28.3605 21.7351 28.585 21.1393 28.585V28.585C20.5436 28.585 19.9723 28.3605 19.551 27.9607C19.1297 27.561 18.8931 27.0188 18.8931 26.4535V24.322" stroke="#263238" stroke-width="1.5" stroke-linecap="round" stroke-linejoin="round"/>
<path d="M59.5691 49.9231H59.3505" stroke="#263238" stroke-width="1.5" stroke-linecap="round" stroke-linejoin="round"/>
<path d="M52.8301 47.7915H52.6116" stroke="#263238" stroke-width="1.5" stroke-linecap="round" stroke-linejoin="round"/>
<path d="M57.3227 41.3855H57.1042" stroke="#263238" stroke-width="1.5" stroke-linecap="round" stroke-linejoin="round"/>
<path d="M59.5691 34.991H59.3505" stroke="#263238" stroke-width="1.5" stroke-linecap="round" stroke-linejoin="round"/>
<path d="M57.3227 26.4536H57.1042" stroke="#263238" stroke-width="1.5" stroke-linecap="round" stroke-linejoin="round"/>
<path d="M7.43095 49.9231H7.64951" stroke="#263238" stroke-width="1.5" stroke-linecap="round" stroke-linejoin="round"/>
<path d="M14.1698 47.7915H14.4005" stroke="#263238" stroke-width="1.5" stroke-linecap="round" stroke-linejoin="round"/>
<path d="M9.6772 41.3855H9.89576" stroke="#263238" stroke-width="1.5" stroke-linecap="round" stroke-linejoin="round"/>
<path d="M7.43095 34.991H7.64951" stroke="#263238" stroke-width="1.5" stroke-linecap="round" stroke-linejoin="round"/>
<path d="M9.6772 26.4536H9.89576" stroke="#263238" stroke-width="1.5" stroke-linecap="round" stroke-linejoin="round"/>
</svg>
