<svg viewBox="0 0 67 63" stroke="#263238" fill="none" xmlns="http://www.w3.org/2000/svg">
<path d="M10.1206 50.7514H15.571C16.3987 50.7531 17.2185 50.5785 17.9835 50.2377C18.7485 49.8969 19.4435 49.3967 20.0288 48.7656C20.6141 48.1346 21.078 47.3851 21.3941 46.5603C21.7101 45.7355 21.8721 44.8515 21.8705 43.959V43.0063" stroke-width="2.5" stroke-linecap="round" stroke-linejoin="round"/>
<path d="M38.6693 28.2089C36.1449 28.5801 34.4696 25.9571 34.4696 14.4756" stroke-width="2.5" stroke-linecap="round" stroke-linejoin="round"/>
<path d="M34.4696 5.44389C34.4696 4.24834 34.9093 3.10157 35.6922 2.25503C36.4752 1.40849 37.5375 0.931254 38.6463 0.927979H51.624" stroke-width="2.5" stroke-linecap="round" stroke-linejoin="round"/>
<path d="M21.7558 43.0435L19.8395 43.5755C16.7581 44.7384 13.9583 46.6326 11.6467 49.1183L6.7241 54.4384C6.2428 54.9519 5.63174 55.3009 4.96739 55.4419C4.30303 55.5828 3.61489 55.5094 2.98905 55.2307C2.36321 54.9521 1.82748 54.4806 1.44889 53.8754C1.0703 53.2701 0.865669 52.5579 0.860592 51.8278V21.8991C0.875712 16.3444 2.92811 11.0216 6.56983 7.09266C10.2115 3.16369 15.1468 0.94756 20.2985 0.927979H58.3367C58.9628 0.93064 59.5764 1.11739 60.1115 1.46813C60.6465 1.81886 61.0826 2.32029 61.373 2.91845C61.6633 3.5166 61.7969 4.18882 61.7593 4.86273C61.7216 5.53664 61.5142 6.18672 61.1594 6.74299L54.3665 17.2842C51.9135 21.0922 48.467 24.029 44.4639 25.7222L39.5184 27.8255C36.2815 29.1915 33.3968 31.3769 31.1076 34.1972L30.3617 35.1252C27.8717 38.1687 25.3014 41.7072 21.7558 43.0435Z" stroke-width="2.5" stroke-linecap="round" stroke-linejoin="round"/>
<path d="M34.4696 54.4631V62.0721" stroke-width="2.5" stroke-linecap="round" stroke-linejoin="round"/>
<path d="M28.4225 37.5254C29.8187 37.9689 31.084 38.796 32.0944 39.9256" stroke-width="2.5" stroke-linecap="round" stroke-linejoin="round"/>
<path d="M34.4696 38.4656V30.8442" stroke-width="2.5" stroke-linecap="round" stroke-linejoin="round"/>
<path d="M34.4696 62.0721V54.4631" stroke-width="2.5" stroke-linecap="round" stroke-linejoin="round"/>
<path d="M66.1165 25.6974C66.1633 25.3221 66.141 24.9405 66.051 24.5744C65.961 24.2083 65.805 23.865 65.5919 23.5639C65.3788 23.2629 65.1127 23.0101 64.809 22.82C64.5052 22.6299 64.1697 22.5061 63.8215 22.4559C63.2144 22.3673 62.5975 22.5072 62.0749 22.852C61.5523 23.1969 61.156 23.7256 60.9529 24.3488C60.3288 24.3091 59.7116 24.5065 59.2085 24.9065C58.7054 25.3066 58.3482 25.8842 58.199 26.5387C57.5112 26.3556 56.7842 26.4742 56.1775 26.8685C55.5708 27.2629 55.134 27.9008 54.9632 28.642C54.274 28.4627 53.547 28.5844 52.9408 28.9808C52.3346 29.3771 51.8984 30.0159 51.7273 30.7577C51.0429 30.586 50.3233 30.7117 49.7242 31.1076C49.1251 31.5035 48.6946 32.1379 48.5259 32.8734C48.0202 32.7359 47.488 32.7623 46.9961 32.9493C46.5042 33.1364 46.0744 33.4758 45.7606 33.925C45.61 33.8491 45.4523 33.791 45.2901 33.7518C44.7843 33.6143 44.2522 33.6407 43.7603 33.8278C43.2684 34.0148 42.8386 34.3542 42.5247 34.8035C42.3725 34.7288 42.2153 34.6667 42.0543 34.6179C41.3651 34.4385 40.6382 34.5603 40.032 34.9566C39.4257 35.353 38.9895 35.9917 38.8185 36.7336C38.2565 36.586 37.6654 36.6388 37.1337 36.8842C36.6019 37.1296 36.1584 37.5543 35.8695 38.0945C34.0281 38.4226 32.3545 39.4444 31.1463 40.9782C29.9381 42.512 29.2738 44.4583 29.2716 46.4706C29.2715 48.7046 30.0882 50.8485 31.5446 52.4374C33.001 54.0263 34.9797 54.932 37.0514 54.958C38.6786 54.9555 40.2651 54.4092 41.5925 53.3945C42.92 52.3797 43.9231 50.9463 44.464 49.2915C45.0293 49.1897 45.5491 48.894 45.946 48.4481C46.3429 48.0023 46.5958 47.4302 46.6671 46.817C47.0145 46.8674 47.3678 46.8434 47.7065 46.7462C48.0453 46.649 48.363 46.4806 48.6413 46.2507C48.9195 46.0207 49.153 45.7338 49.3281 45.4064C49.5033 45.0789 49.6167 44.7174 49.6619 44.3426C50.01 44.393 50.3639 44.3691 50.7034 44.272C51.0429 44.175 51.3614 44.0068 51.6406 43.777C51.9198 43.5472 52.1542 43.2603 52.3306 42.9328C52.5069 42.6052 52.6217 42.2435 52.6683 41.8681C53.0164 41.9186 53.3703 41.8946 53.7098 41.7976C54.0493 41.7005 54.3677 41.5323 54.6469 41.3025C54.9261 41.0727 55.1606 40.7858 55.3369 40.4583C55.5132 40.1308 55.628 39.769 55.6746 39.3936C56.3771 39.4922 57.0873 39.2875 57.6504 38.824C58.2135 38.3605 58.5839 37.6758 58.6809 36.9191C59.0284 36.9696 59.3816 36.9455 59.7204 36.8483C60.0592 36.7511 60.3769 36.5827 60.6551 36.3528C60.9334 36.1229 61.1668 35.8359 61.342 35.5085C61.5171 35.1811 61.6306 34.8195 61.6758 34.4447C62.0239 34.4952 62.3778 34.4712 62.7173 34.3742C63.0568 34.2771 63.3753 34.1089 63.6545 33.8791C63.9336 33.6493 64.1681 33.3624 64.3444 33.0349C64.5208 32.7074 64.6355 32.3456 64.6821 31.9702C64.7457 31.5567 64.7182 31.1329 64.6018 30.733C64.9954 30.524 65.3353 30.2138 65.5914 29.8297C65.8476 29.4457 66.0121 28.9995 66.0705 28.5307C66.1476 27.904 66.0264 27.2675 65.7263 26.7243C65.9158 26.4119 66.0482 26.0634 66.1165 25.6974V25.6974Z" stroke-width="2.5" stroke-linecap="round" stroke-linejoin="round"/>
<path d="M23.1901 42.3381V52.236C23.1901 62.1339 31.3141 62.1339 31.3141 62.1339" stroke-width="2.5" stroke-linecap="round" stroke-linejoin="round"/>
<path d="M39.8627 38.0698C39.8627 38.0698 39.4381 39.3071 41.274 39.3071" stroke-width="2.5" stroke-linecap="round" stroke-linejoin="round"/>
<path d="M35.1007 46.9161C34.6064 46.2415 34.3734 45.387 34.4504 44.5313C34.5274 43.6757 34.9085 42.8854 35.5138 42.3259" stroke-width="2.5" stroke-linecap="round" stroke-linejoin="round"/>
<path d="M49.2833 40.4947C49.2833 40.4947 51.8765 39.9751 50.7979 36.9438" stroke-width="2.5" stroke-linecap="round" stroke-linejoin="round"/>
<path d="M54.0108 35.5086C54.0108 35.5086 54.7681 34.1848 51.6241 33.5291" stroke-width="2.5" stroke-linecap="round" stroke-linejoin="round"/>
<path d="M54.0911 34.123C54.4732 33.6935 54.7612 33.1772 54.934 32.612C55.1067 32.0467 55.1598 31.447 55.0894 30.8567" stroke-width="2.5" stroke-linecap="round" stroke-linejoin="round"/>
<path d="M58.9793 32.4402C59.0029 32.6493 59.0657 32.8511 59.1637 33.0334C59.2617 33.2157 59.3929 33.3746 59.5495 33.5007C59.7061 33.6267 59.8848 33.7172 60.0747 33.7668C60.2646 33.8163 60.4619 33.8238 60.6546 33.7888" stroke-width="2.5" stroke-linecap="round" stroke-linejoin="round"/>
<path d="M44.1312 41.6205C44.4761 41.2148 44.9476 40.9602 45.4556 40.9054C45.9636 40.8506 46.4725 40.9995 46.8851 41.3236" stroke-width="2.5" stroke-linecap="round" stroke-linejoin="round"/>
<path d="M40.5511 46.4705C40.5511 46.4705 39.0594 46.854 38.6693 44.825" stroke-width="2.5" stroke-linecap="round" stroke-linejoin="round"/>
<path d="M43.0411 45.085C42.9756 45.2532 42.943 45.4343 42.9455 45.6168C42.9479 45.7993 42.9853 45.9792 43.0554 46.1454C43.1254 46.3115 43.2266 46.4602 43.3525 46.5822C43.4784 46.7042 43.6263 46.7968 43.7869 46.8542" stroke-width="2.5" stroke-linecap="round" stroke-linejoin="round"/>
<path d="M38.6693 54.7725V62.0721" stroke-width="2.5" stroke-linecap="round" stroke-linejoin="round"/>
<path d="M34.5385 36.1521C35.0611 36.6662 35.5446 37.2248 35.9843 37.8224" stroke-width="2.5" stroke-linecap="round" stroke-linejoin="round"/>
</svg>