<svg viewBox="0 0 67 63" stroke="#263238" fill="none" xmlns="http://www.w3.org/2000/svg">
<path d="M12.2353 61.7943C12.0831 60.7558 12.0083 59.7113 12.0113 58.666V26.0798" stroke-width="1.5" stroke-linecap="round" stroke-linejoin="round"/>
<path d="M12.0112 13.9251V9.87357C11.9961 8.21209 12.5951 6.58207 13.7374 5.17668C14.8797 3.77129 16.5173 2.64946 18.4561 1.94414C20.395 1.23882 22.5538 0.979574 24.6768 1.19714C26.7997 1.4147 28.7978 2.09995 30.4341 3.17167L38.4417 8.33116C47.0521 13.8945 53.9798 20.8595 58.7337 28.7322C63.4875 36.6049 65.9512 45.1927 65.95 53.8867V61.7943" stroke-width="1.5" stroke-linecap="round" stroke-linejoin="round"/>
<path d="M39.6036 34.9651C38.8244 36.6659 37.3347 38.1158 35.3714 39.0842C33.408 40.0525 31.0838 40.4837 28.7682 40.3092C25.2265 40.1354 22.9726 38.6256 22.9726 36.5835V35.9644C23.7678 36.2317 24.6258 36.3686 25.4924 36.3663" stroke-width="1.5" stroke-linecap="round" stroke-linejoin="round"/>
<path d="M45.7213 40.6894L38.7917 40.2875L41.9975 36.6704" stroke-width="1.5" stroke-linecap="round" stroke-linejoin="round"/>
<path d="M38.9736 54.7339C34.7739 54.7339 27.4943 55.125 24.1485 49.455C23.4041 48.2462 23.0031 46.9275 22.9726 45.5881V42.2317C27.3669 42.7752 31.8357 42.8556 36.2578 42.4707C39.4211 42.4561 42.5822 42.6012 45.7212 42.9051" stroke-width="1.5" stroke-linecap="round" stroke-linejoin="round"/>
<path d="M31.1342 61.2621L29.4123 56.7109C32.5717 57.1463 35.802 57.1757 38.9737 56.7978" stroke-width="1.5" stroke-linecap="round" stroke-linejoin="round"/>
<path d="M1.04994 1.12964V14.0446C1.04994 21.0398 5.24969 21.8219 8.69348 22.4193C14.2092 23.3426 19.0249 26.4274 19.0249 31.3479V45.5881C18.9073 47.4257 19.4605 49.2517 20.6208 50.8562C23.8818 54.3542 26.5144 58.1801 28.4463 62.2288" stroke-width="1.5" stroke-linecap="round" stroke-linejoin="round"/>
<path d="M47.2612 30.6094L49.1371 32.0649" stroke-width="1.5" stroke-linecap="round" stroke-linejoin="round"/>
<path d="M47.2612 32.0758L49.1371 30.6311" stroke-width="1.5" stroke-linecap="round" stroke-linejoin="round"/>
<path d="M52.0209 44.5237L53.8968 45.9792" stroke-width="1.5" stroke-linecap="round" stroke-linejoin="round"/>
<path d="M52.0209 45.9901L53.8968 44.5454" stroke-width="1.5" stroke-linecap="round" stroke-linejoin="round"/>
<path d="M47.0932 55.1033L48.9691 56.5588" stroke-width="1.5" stroke-linecap="round" stroke-linejoin="round"/>
<path d="M47.0932 56.5697L48.9691 55.125" stroke-width="1.5" stroke-linecap="round" stroke-linejoin="round"/>
<path d="M7.65754 5.71338C6.16097 6.10537 4.58919 6.29638 3.00982 6.2782" stroke-linecap="round" stroke-linejoin="round"/>
<path d="M7.65754 3.28027C6.16097 3.67227 4.58919 3.86329 3.00982 3.84511" stroke-linecap="round" stroke-linejoin="round"/>
<path d="M7.65754 8.14648C6.16097 8.53848 4.58919 8.72949 3.00982 8.71131" stroke-linecap="round" stroke-linejoin="round"/>
<path d="M7.65754 10.5796C6.16097 10.9716 4.58919 11.1626 3.00982 11.1444" stroke-linecap="round" stroke-linejoin="round"/>
<path d="M7.90953 13.0127C6.41296 13.4047 4.84117 13.5957 3.26181 13.5775" stroke-linecap="round" stroke-linejoin="round"/>
<path d="M8.17551 15.4458C6.68378 15.8378 5.11658 16.0288 3.54179 16.0106" stroke-linecap="round" stroke-linejoin="round"/>
<path d="M9.68742 16.9558C8.46956 17.7382 7.09298 18.3585 5.61367 18.7915" stroke-linecap="round" stroke-linejoin="round"/>
<path d="M12.0113 17.7703C11.1099 18.7756 9.99793 19.6568 8.72148 20.3772" stroke-linecap="round" stroke-linejoin="round"/>
<path d="M7.65754 0.890625C6.16097 1.28262 4.58919 1.47363 3.00982 1.45545" stroke-linecap="round" stroke-linejoin="round"/>
<path d="M21.2507 22.6148C21.5727 22.832 20.9148 22.365 21.2507 22.6148" stroke-width="1.5" stroke-linecap="round" stroke-linejoin="round"/>
<path d="M17.275 20.2468C17.889 20.5486 18.4824 20.8749 19.0529 21.2244" stroke-width="1.5" stroke-linecap="round" stroke-linejoin="round"/>
<path d="M6.6916 0.814697V13.2952C6.6916 17.955 10.0514 17.64 14.7411 19.215" stroke-width="1.5" stroke-linecap="round" stroke-linejoin="round"/>
<path d="M22.4127 27.8613V32.1193C22.4127 32.1193 23.0286 33.3358 24.1346 33.3249" stroke-width="1.5" stroke-linecap="round" stroke-linejoin="round"/>
</svg>