<svg viewBox="0 0 67 63" fill="none" xmlns="http://www.w3.org/2000/svg">
<path d="M63.5102 24.0974C60.6502 25.2224 58.9185 24.8174 55.3763 25.2224" stroke="#263238" stroke-width="1.5" stroke-linecap="round" stroke-linejoin="round"/>
<path d="M58.4331 18.1462C58.4331 18.1462 54.1431 21.5212 52.2802 21.9375" stroke="#263238" stroke-width="1.5" stroke-linecap="round" stroke-linejoin="round"/>
<path d="M1.04953 40.7025C6.15292 40.005 8.48814 37.71 11.2563 37.71" stroke="#263238" stroke-width="1.5" stroke-linecap="round" stroke-linejoin="round"/>
<path d="M2.47955 34.3126C6.92698 35.2351 9.8657 34.2113 11.3744 34.3126" stroke="#263238" stroke-width="1.5" stroke-linecap="round" stroke-linejoin="round"/>
<path d="M31.7748 4.26364L28.7968 1.04614" stroke="#263238" stroke-width="1.5" stroke-linecap="round" stroke-linejoin="round"/>
<path d="M36.8651 4.15124C36.5102 4.08146 36.151 4.02888 35.7893 3.99374L35.9205 0.84375" stroke="#263238" stroke-width="1.5" stroke-linecap="round" stroke-linejoin="round"/>
<path d="M42.7032 7.22243C41.9808 6.48178 41.1262 5.84388 40.1711 5.33243L42.2046 1.02368" stroke="#263238" stroke-width="1.5" stroke-linecap="round" stroke-linejoin="round"/>
<path d="M27.8259 5.55762C26.9209 6.02142 26.084 6.57664 25.3333 7.21137" stroke="#263238" stroke-width="1.5" stroke-linecap="round" stroke-linejoin="round"/>
<path d="M46.6258 19.1924L47.2555 19.5186C55.7306 23.6249 57.0818 26.4374 54.7597 27.9224" stroke="#263238" stroke-width="1.5" stroke-linecap="round" stroke-linejoin="round"/>
<path d="M13.1848 6.75L14.3656 14.31C15.0609 18.7187 15.0609 23.1876 14.3656 27.5962C9.89189 33.3337 10.8496 40.5225 13.1455 43.65C15.2183 46.4737 17.829 43.8975 21.017 40.275" stroke="#263238" stroke-width="1.5" stroke-linecap="round" stroke-linejoin="round"/>
<path d="M30.0824 30.4312C33.0999 26.6737 32.2209 24.0075 29.1247 22.9725C27.9095 22.5746 26.6314 22.3357 25.3333 22.2637L21.5156 5.79373C21.0433 5.09623 19.469 4.66872 17.8028 4.73622" stroke="#263238" stroke-width="1.5" stroke-linecap="round" stroke-linejoin="round"/>
<path d="M14.6411 44.7638C14.6411 44.9325 14.7329 45.1013 14.7854 45.27C25.0577 64.1925 43.5428 62.145 56.4652 62.145C62.0803 62.145 67.2886 56.835 65.7405 46.8563C64.6385 39.8588 60.4928 27.5625 56.3603 27.4275C52.6213 29.0363 47.6228 28.6988 42.7031 27.4838C42.2273 27.3765 41.7986 27.152 41.4699 26.8381C41.1412 26.5242 40.9268 26.1347 40.8533 25.7175L40.7352 24.9975C40.5137 23.5909 40.6177 22.1607 41.0412 20.7886C41.4647 19.4165 42.1995 18.1295 43.2035 17.001C44.2075 15.8726 45.461 14.925 46.8924 14.2123C48.3238 13.4996 49.905 13.0358 51.5455 12.8475L52.2408 12.7688C53.9726 11.8575 53.2116 9.02253 51.6767 9.20253L45.445 9.91128C42.4861 10.2496 39.6699 11.2078 37.2455 12.7013C36.3272 13.275 35.0415 11.115 33.0998 12.4425C30.476 14.2425 30.8827 16.8413 31.4599 18.6188C30.6316 20.087 30.0824 21.6593 29.8331 23.2763" stroke="#263238" stroke-width="1.5" stroke-linecap="round" stroke-linejoin="round"/>
<path d="M22.0403 26.4824C22.0403 26.4824 25.3988 24.3337 25.3332 22.2637" stroke="#263238" stroke-width="1.5" stroke-linecap="round" stroke-linejoin="round"/>
<path d="M38.0196 30.555C38.0196 30.555 41.1288 28.305 41.2994 26.7188" stroke="#263238" stroke-width="1.5" stroke-linecap="round" stroke-linejoin="round"/>
</svg>
