<svg viewBox="0 0 67 64" fill="none" xmlns="http://www.w3.org/2000/svg">
<path d="M47.9506 17.2334H41.2781V21.6914C41.2799 22.1952 41.4718 22.6862 41.8277 23.0975C42.1836 23.5089 42.6861 23.8205 43.2667 23.9899L66.0187 31.0457" stroke="#263238" stroke-width="1.5" stroke-linecap="round" stroke-linejoin="round"/>
<path d="M47.9506 17.2334C48.1459 17.2334 48.3392 17.2018 48.5194 17.1404C48.6997 17.079 48.8632 16.9891 49.0007 16.8758C49.1381 16.7624 49.2468 16.628 49.3203 16.4802C49.3938 16.3324 49.4308 16.1742 49.429 16.0146V14.7959" stroke="#263238" stroke-width="1.5" stroke-linecap="round" stroke-linejoin="round"/>
<path d="M19.4812 0.801758C19.604 4.7773 21.2311 8.6241 24.1389 11.8131C25.7743 13.8443 24.8977 21.6913 24.8977 21.6913C24.8949 22.1963 24.7011 22.6883 24.3427 23.0998C23.9843 23.5113 23.479 23.8222 22.8959 23.9898L0.981262 31.0456" stroke="#263238" stroke-width="1.5" stroke-linecap="round" stroke-linejoin="round"/>
<path d="M49.416 14.7958V9.93157H53.0008C53.1634 9.95497 53.3309 9.93726 53.4809 9.8808C53.6309 9.82434 53.7562 9.73182 53.8401 9.61561C53.9241 9.49939 53.9626 9.36502 53.9505 9.23045C53.9385 9.09587 53.8764 8.9675 53.7727 8.8625L49.573 0.801758" stroke="#263238" stroke-width="1.5" stroke-linecap="round" stroke-linejoin="round"/>
<path d="M46.446 13.5772H40.3099C39.3942 13.5567 38.4897 13.7461 37.6989 14.124C36.9081 14.5019 36.2625 15.0531 35.8354 15.7153C34.8018 17.2334 34.1607 19.3181 34.1607 25.23" stroke="#263238" stroke-width="1.5" stroke-linecap="round" stroke-linejoin="round"/>
<path d="M48.6702 5.18506L39.695 6.64969C36.5943 7.16284 31.7665 8.59538 31.7665 14.7318L31.4394 25.23" stroke="#263238" stroke-width="1.5" stroke-linecap="round" stroke-linejoin="round"/>
<path d="M37.7849 34.4561V32.9594C37.7849 30.2333 41.1996 28.5228 43.777 30.276L46.5769 32.179C49.5925 34.2321 52.0192 36.8015 53.6854 39.7056C55.3516 42.6096 56.2167 45.7773 56.2193 48.9847V59.6753C56.216 60.0776 56.0979 60.4736 55.8744 60.8321C55.6509 61.1905 55.3282 61.5014 54.932 61.7401C54.5357 61.9788 54.0768 62.1387 53.5916 62.2071C53.1065 62.2755 52.6086 62.2505 52.1373 62.1342L46.2105 60.6375C43.7036 60.0183 41.5178 58.7388 39.9937 56.9984C38.4697 55.258 37.693 53.1546 37.7849 51.0159V37.2998" stroke="#263238" stroke-width="1.5" stroke-linecap="round" stroke-linejoin="round"/>
<path d="M40.4669 42.0142V45.9269C40.4636 46.5098 40.6295 47.085 40.9509 47.6054V47.6054C41.3312 48.2295 41.9174 48.7544 42.6433 49.1208C43.3691 49.4873 44.2059 49.6807 45.0591 49.6794H46.76" stroke="#263238" stroke-width="1.5" stroke-linecap="round" stroke-linejoin="round"/> 
<path d="M42.2201 49.0381L43.5415 51.9032" stroke="#263238" stroke-width="1.5" stroke-linecap="round" stroke-linejoin="round"/>
<path d="M45.3078 44.4089L47.5058 42.3777" stroke="#263238" stroke-width="1.5" stroke-linecap="round" stroke-linejoin="round"/>
<path d="M34.1607 25.23V35.5251C34.1607 35.6945 34.2017 35.8622 34.2815 36.0185C34.3612 36.1749 34.478 36.3167 34.6252 36.436C34.7723 36.5553 34.947 36.6496 35.139 36.7134C35.331 36.7772 35.5365 36.8094 35.7438 36.808V36.808C36.9976 36.8108 38.199 37.2198 39.0843 37.9452C39.9697 38.6707 40.4669 39.6534 40.4669 40.678V42.6023C40.4669 43.1136 40.7146 43.6042 41.1559 43.9668C41.5971 44.3294 42.1961 44.5345 42.8219 44.5373H49.1281" stroke="#263238" stroke-width="1.5" stroke-linecap="round" stroke-linejoin="round"/>
<path d="M40.4669 40.6778C40.4669 41.0181 40.6323 41.3444 40.9267 41.585C41.2212 41.8256 41.6205 41.9607 42.0369 41.9607V41.9607C42.4545 41.9607 42.8552 41.8259 43.1517 41.5856C43.4482 41.3454 43.6165 41.0191 43.62 40.6778V39.3843" stroke="#263238" stroke-width="1.5" stroke-linecap="round" stroke-linejoin="round"/>
<path d="M28.3255 34.2423V32.7456C28.3316 32.1243 28.1167 31.5149 27.7069 30.9915C27.2972 30.4681 26.7102 30.0533 26.0173 29.7974C25.3244 29.5415 24.5554 29.4555 23.8039 29.55C23.0524 29.6444 22.3506 29.9152 21.7838 30.3295L18.9709 32.2324C15.9553 34.2856 13.5286 36.855 11.8624 39.759C10.1962 42.6631 9.33114 45.8308 9.32846 49.0381V59.7288C9.33182 60.131 9.44993 60.5271 9.6734 60.8855C9.89688 61.2439 10.2196 61.5548 10.6158 61.7935C11.0121 62.0322 11.471 62.1921 11.9561 62.2605C12.4413 62.3289 12.9392 62.304 13.4105 62.1876L19.3372 60.6909C21.9143 60.0435 24.1692 58.7377 25.7706 56.9654C27.372 55.1931 28.2354 53.0478 28.2339 50.8448V37.1394" stroke="#263238" stroke-width="1.5" stroke-linecap="round" stroke-linejoin="round"/>
<path d="M25.1332 42.0142V45.9269C25.1364 46.5098 24.9705 47.085 24.6491 47.6054V47.6054C24.2688 48.2295 23.6827 48.7544 22.9568 49.1208C22.2309 49.4873 21.3942 49.6807 20.5409 49.6794H18.8401" stroke="#263238" stroke-width="1.5" stroke-linecap="round" stroke-linejoin="round"/>
<path d="M23.38 49.0381L22.0586 51.9032" stroke="#263238" stroke-width="1.5" stroke-linecap="round" stroke-linejoin="round"/>
<path d="M20.2923 44.4089L18.1074 42.3777" stroke="#263238" stroke-width="1.5" stroke-linecap="round" stroke-linejoin="round"/>
<path d="M31.4394 25.23V35.5251C31.4394 35.6945 31.3984 35.8622 31.3187 36.0185C31.2389 36.1749 31.1221 36.3167 30.9749 36.436C30.8278 36.5553 30.6531 36.6496 30.4611 36.7134C30.2692 36.7772 30.0636 36.8094 29.8563 36.808V36.808C28.6025 36.8108 27.4012 37.2198 26.5158 37.9452C25.6304 38.6707 25.1332 39.6534 25.1332 40.678V42.6023C25.1332 43.1136 24.8855 43.6042 24.4442 43.9668C24.003 44.3294 23.404 44.5345 22.7782 44.5373H16.472" stroke="#263238" stroke-width="1.5" stroke-linecap="round" stroke-linejoin="round"/>
<path d="M25.1332 40.6778C25.1332 41.0181 24.9678 41.3444 24.6733 41.585C24.3789 41.8256 23.9796 41.9607 23.5632 41.9607V41.9607C23.1468 41.9607 22.7474 41.8256 22.453 41.585C22.1586 41.3444 21.9932 41.0181 21.9932 40.6778V39.3843" stroke="#263238" stroke-width="1.5" stroke-linecap="round" stroke-linejoin="round"/>
<path d="M35.3644 20.8896C34.8222 20.9816 34.2652 20.9996 33.7159 20.9431" stroke="#263238" stroke-width="1.5" stroke-linecap="round" stroke-linejoin="round"/>
<path d="M35.3644 23.3057C34.8181 23.3746 34.2621 23.3746 33.7159 23.3057" stroke="#263238" stroke-width="1.5" stroke-linecap="round" stroke-linejoin="round"/>
<path d="M35.3644 25.7217C34.818 25.7897 34.2622 25.7897 33.7159 25.7217" stroke="#263238" stroke-width="1.5" stroke-linecap="round" stroke-linejoin="round"/>
<path d="M35.3644 28.1272C34.8222 28.2191 34.2652 28.2372 33.7159 28.1807" stroke="#263238" stroke-width="1.5" stroke-linecap="round" stroke-linejoin="round"/>
<path d="M35.3644 30.5432C34.818 30.6113 34.2622 30.6113 33.7159 30.5432" stroke="#263238" stroke-width="1.5" stroke-linecap="round" stroke-linejoin="round"/>
<path d="M35.3644 32.9592C34.818 33.0273 34.2622 33.0273 33.7159 32.9592" stroke="#263238" stroke-width="1.5" stroke-linecap="round" stroke-linejoin="round"/>
</svg>