<svg viewBox="0 0 67 63" fill="none" stroke="#263238" xmlns="http://www.w3.org/2000/svg">
<path d="M28.343 43.1323C29.177 44.9013 30.3835 46.493 31.8898 47.8114C33.3961 49.1298 35.1708 50.1476 37.107 50.8032C40.5794 52 43.4761 54.3346 45.2649 57.3783L45.8942 58.4741L47.5258 61.663" stroke-width="1.5" stroke-linecap="round" stroke-linejoin="round"/>
<path d="M52.6304 62.1781L51.9545 58.6824C51.3202 55.387 49.9628 52.2521 47.9687 49.4773" stroke-width="1.5" stroke-linecap="round" stroke-linejoin="round"/>
<path d="M23.5998 10.8599C21.3622 11.3092 20.7445 14.246 21.7235 15.2432C20.4943 15.4234 19.3739 16.0103 18.5641 16.8984C17.7543 17.7864 17.3083 18.9171 17.3065 20.0869C17.3119 20.3219 17.3353 20.5563 17.3764 20.7882C16.9724 20.692 16.5578 20.6405 16.1411 20.6348C14.5792 20.5552 13.0362 20.9866 11.7743 21.8556C10.5123 22.7245 9.60927 23.9775 9.21851 25.4017" stroke-width="1.5" stroke-linecap="round" stroke-linejoin="round"/>
<path d="M32.6434 10.0708C34.5314 7.99967 35.86 5.62169 35.184 2.94784C34.6013 0.635608 29.928 -0.547908 27.8069 3.38617C27.4533 4.44636 27.1692 5.52597 26.9562 6.6189" stroke-width="1.5" stroke-linecap="round" stroke-linejoin="round"/>
<path d="M26.3035 34.8258C26.3035 34.8258 33.5524 29.9712 39.7175 32.6341C43.039 34.0806 48.0619 34.2011 50.3112 31.4615C52.2924 29.0507 52.3973 25.9823 55.6371 25.8508C56.502 25.8638 57.3292 26.186 57.9504 26.7519C58.5717 27.3178 58.9405 28.0849 58.9819 28.8973" stroke-width="1.5" stroke-linecap="round" stroke-linejoin="round"/>
<path d="M9.16026 13.5446C8.81463 13.2127 8.55332 12.8116 8.3959 12.3714C8.23848 11.9311 8.18902 11.463 8.25124 11.0022C8.34518 9.95379 8.84609 8.97452 9.65851 8.25102C10.4709 7.52752 11.5381 7.11038 12.6565 7.07911C13.4131 7.00401 14.1772 7.12215 14.8684 7.42108C15.5596 7.72 16.1523 8.18865 16.584 8.77767" stroke-width="1.5" stroke-linecap="round" stroke-linejoin="round"/>
<path d="M34.1002 23.0895C36.9518 22.0026 40.1175 21.8864 43.0506 22.7607" stroke-width="1.5" stroke-linecap="round" stroke-linejoin="round"/>
<path d="M20.7213 32.93C20.4699 34.3446 19.8625 35.6822 18.9498 36.8312C18.6025 37.375 18.1219 37.8328 17.5482 38.1664C16.9745 38.4999 16.3242 38.6997 15.6517 38.749C15.0817 38.7481 14.5196 38.6243 14.0084 38.3873C13.1402 37.9857 12.4749 37.2788 12.1565 36.4196C11.8381 35.5603 11.8921 34.6178 12.3069 33.7957C13.216 32.0643 15.6517 27.9111 18.472 26.5851C21.8401 25.0071 25.651 25.4016 27.4923 25.5988H27.7138" stroke-width="1.5" stroke-linecap="round" stroke-linejoin="round"/>
<path d="M15.8265 13.5664C15.793 14.3304 16.0252 15.0838 16.4878 15.7125C16.9504 16.3413 17.6183 16.8113 18.3904 17.0512" stroke-width="1.5" stroke-linecap="round" stroke-linejoin="round"/>
<path d="M52.9567 34.4751C50.0431 36.0532 48.668 33.5656 49.4604 32.2834" stroke-width="1.5" stroke-linecap="round" stroke-linejoin="round"/>
<path d="M44.8104 29.5878C43.2954 29.3686 40.0322 31.2097 42.6311 33.4561" stroke-width="1.5" stroke-linecap="round" stroke-linejoin="round"/>
<path d="M11.9223 34.6725H9.87114C7.49104 34.6638 5.21158 33.7687 3.53186 32.1831C1.85214 30.5975 0.90904 28.4506 0.909058 26.2126V24.0867C0.909056 23.3921 1.05474 22.7044 1.33776 22.0628C1.62079 21.4212 2.0356 20.8385 2.55845 20.3479C3.0813 19.8572 3.70193 19.4684 4.3848 19.2036C5.06767 18.9388 5.79938 18.8033 6.53804 18.8047H7.70346" stroke-width="1.5" stroke-linecap="round" stroke-linejoin="round"/>
<path d="M16.8753 38.4861C17.2702 39.8224 18.1199 41.0003 19.2944 41.8395C20.4688 42.6786 21.9033 43.1328 23.3784 43.1325H32.3754C33.801 43.1333 35.1902 42.7096 36.3438 41.9221C37.4974 41.1346 38.3562 40.0239 38.7969 38.7491" stroke-width="1.5" stroke-linecap="round" stroke-linejoin="round"/>
<path d="M42.4912 48.9951C43.5887 49.3184 44.7325 49.481 45.8826 49.4772H52.6304C53.8235 49.4772 54.9677 49.0316 55.8113 48.2383C56.655 47.4451 57.1289 46.3691 57.1289 45.2473C57.1289 44.1254 56.655 43.0495 55.8113 42.2563C54.9677 41.463 53.8235 41.0173 52.6304 41.0173H51.465" stroke-width="1.5" stroke-linecap="round" stroke-linejoin="round"/>
<path d="M56.4646 43.0336C59.1481 42.6748 61.6038 41.4177 63.3807 39.4932C65.1577 37.5687 66.1365 35.106 66.1376 32.5574V27.2206C66.1345 24.415 64.9471 21.7253 62.8361 19.7424C60.7252 17.7595 57.8634 16.6458 54.8797 16.6458H53.7142" stroke-width="1.5" stroke-linecap="round" stroke-linejoin="round"/>
<path d="M8.3211 11.9995C6.32362 14.2417 4.74715 16.7877 3.65942 19.5279" stroke-width="1.5" stroke-linecap="round" stroke-linejoin="round"/>
<path d="M27.8419 2.95874C22.9071 3.14802 18.1238 4.61564 14.0201 7.19965" stroke-width="1.5" stroke-linecap="round" stroke-linejoin="round"/>
<path d="M53.2597 7.61604C49.2594 4.58261 44.2738 2.93097 39.1348 2.93678H35.184" stroke-width="1.5" stroke-linecap="round" stroke-linejoin="round"/>
<path d="M59.7511 17.6102C59.9908 16.8677 60.1126 16.0959 60.1124 15.3199C60.1093 13.2438 59.23 11.2537 57.6677 9.78663C56.1053 8.3196 53.9876 7.4956 51.7796 7.49561C50.3284 7.49673 48.9026 7.85422 47.6434 8.53271C46.3843 9.21119 45.3354 10.1871 44.6006 11.3639" stroke-width="1.5" stroke-linecap="round" stroke-linejoin="round"/>
<path d="M48.6214 22.4429C48.2729 22.8218 47.8416 23.1257 47.3569 23.3337C46.8722 23.5417 46.3455 23.649 45.8127 23.6483C45.3266 23.6483 44.8452 23.5581 44.3962 23.3828C43.9472 23.2076 43.5395 22.9507 43.1962 22.627C42.853 22.3032 42.5812 21.919 42.3962 21.4963C42.2112 21.0735 42.1168 20.6206 42.1183 20.1635C42.1092 19.6222 42.2352 19.0865 42.4862 18.5993C42.7372 18.1121 43.1061 17.687 43.5634 17.3582" stroke-width="1.5" stroke-linecap="round" stroke-linejoin="round"/>
<path d="M25.1032 21.6319C25.1032 22.7537 25.5771 23.8296 26.4208 24.6229C27.2644 25.4162 28.4086 25.8618 29.6017 25.8618C30.7948 25.8618 31.939 25.4162 32.7826 24.6229C33.6263 23.8296 34.1002 22.7537 34.1002 21.6319C34.0268 20.6087 33.7459 19.6081 33.2728 18.6841" stroke-width="1.5" stroke-linecap="round" stroke-linejoin="round"/>
</svg>
